<svg width="25" height="25" viewBox="0 0 25 25" fill="none" xmlns="http://www.w3.org/2000/svg">
<rect width="25" height="25" fill="#E5E5E5"/>
<rect x="-227" y="-720" width="1440" height="1024" rx="40" fill="#F9FAFE"/>
<line x1="11.5078" y1="-505" x2="11.5078" y2="258" stroke="black" stroke-opacity="0.2" stroke-width="0.5"/>
<circle cx="12.5" cy="12.5" r="12.375" fill="white" stroke="#3FB883" stroke-width="0.25"/>
<g clip-path="url(#clip0_0_1)">
<path d="M13.4854 12.9916L14.9477 14.3436L16.9142 15.3599L17.2563 13.0001L16.9142 10.6935L14.91 11.5864L13.4854 12.9916Z" fill="#00832D"/>
<path d="M5 15.1402V17.1511C5 17.6103 5.46078 17.9831 6.02855 17.9831H8.51469L9.02949 16.4637L8.51469 15.1402L6.80902 14.7238L5.00006 15.1402H5Z" fill="#0066DA"/>
<path d="M8.51469 8L5 10.8428L6.80914 11.2582L8.51469 10.8428L9.02012 9.53739L8.51469 8Z" fill="#E94235"/>
<path d="M5 15.1413H8.51469V10.8428H5.00006L5 15.1413Z" fill="#2684FC"/>
<path d="M19.1597 9.20371L16.9144 10.6936V15.3599L19.1689 16.8556C19.5064 17.0694 20.0001 16.8745 20.0001 16.5275V9.52513C20.0001 9.17428 19.4946 8.98034 19.1596 9.20375" fill="#00AC47"/>
<path d="M13.4855 12.9917V15.1404H8.51453V17.9833H15.8859C16.4536 17.9833 16.9143 17.6105 16.9143 17.1513V15.36L13.4855 12.9917Z" fill="#00AC47"/>
<path d="M15.8859 8H8.51453V10.8428H13.4855V12.9916L16.9144 10.6935V8.83199C16.9144 8.37275 16.4536 8.00005 15.8859 8.00005" fill="#FFBA00"/>
</g>
<defs>
<clipPath id="clip0_0_1">
<rect width="15" height="10" fill="white" transform="translate(5 8)"/>
</clipPath>
</defs>
</svg>
