<svg width="25" height="25" viewBox="0 0 25 25" fill="none" xmlns="http://www.w3.org/2000/svg">
<rect width="25" height="25" fill="#E5E5E5"/>
<rect x="-227" y="-930" width="1440" height="1024" rx="40" fill="#F9FAFE"/>
<line x1="11.5078" y1="-715" x2="11.5078" y2="48.0001" stroke="black" stroke-opacity="0.2" stroke-width="0.5"/>
<circle cx="12.5" cy="12.5" r="12.5" fill="#F2DF37"/>
<path d="M12.6667 9H11.3333V9.66667C11.3333 9.84348 11.4036 10.013 11.5286 10.1381C11.6536 10.2631 11.8232 10.3333 12 10.3333C12.1768 10.3333 12.3464 10.2631 12.4714 10.1381C12.5964 10.013 12.6667 9.84348 12.6667 9.66667V9Z" fill="white"/>
<path fill-rule="evenodd" clip-rule="evenodd" d="M8 6.33334V7.66668H8.66667V9.66668C8.66667 10.5507 9.01786 11.3986 9.64298 12.0237C10.2681 12.6488 11.1159 13 12 13C11.1159 13 10.2681 13.3512 9.64298 13.9763C9.01786 14.6014 8.66667 15.4493 8.66667 16.3333V18.3333H8V19.6667H16V18.3333H15.3333V16.3333C15.3333 15.4493 14.9821 14.6014 14.357 13.9763C13.7319 13.3512 12.8841 13 12 13C12.4377 13 12.8712 12.9138 13.2756 12.7463C13.68 12.5788 14.0475 12.3332 14.357 12.0237C14.6666 11.7142 14.9121 11.3467 15.0796 10.9423C15.2471 10.5379 15.3333 10.1044 15.3333 9.66668V7.66668H16V6.33334H8ZM10 7.66668H14V9.66668C14 10.1971 13.7893 10.7058 13.4142 11.0809C13.0391 11.456 12.5304 11.6667 12 11.6667C11.4696 11.6667 10.9609 11.456 10.5858 11.0809C10.2107 10.7058 10 10.1971 10 9.66668V7.66668ZM10 16.3333V18.3333H14V16.3333C14 15.8029 13.7893 15.2942 13.4142 14.9191C13.0391 14.5441 12.5304 14.3333 12 14.3333C11.4696 14.3333 10.9609 14.5441 10.5858 14.9191C10.2107 15.2942 10 15.8029 10 16.3333Z" fill="white"/>
</svg>
