<svg width="25" height="25" viewBox="0 0 25 25" fill="none" xmlns="http://www.w3.org/2000/svg">
<rect width="25" height="25" fill="#E5E5E5"/>
<rect x="-226" y="-467" width="1440" height="1024" rx="40" fill="#F9FAFE"/>
<line x1="12.5078" y1="-252" x2="12.5078" y2="511" stroke="black" stroke-opacity="0.2" stroke-width="0.5"/>
<circle cx="12.5" cy="12.5" r="12.5" fill="#FB8789"/>
<path d="M19.6667 13.6667V15.6667C19.6667 16.4 19.0667 17 18.3333 17H16.3333L17 17.6667V19H8.99999V17.6667L9.66666 17H7.66666C6.93333 17 6.33333 16.4 6.33333 15.6667V8.33333C6.33333 7.6 6.93333 7 7.66666 7H13V8.33333H7.66666V15.6667H18.3333V13.6667H19.6667ZM15 15L11.6667 11.6667L12.6067 10.7267L14.3333 12.4467V7H15.6667V12.4467L17.3933 10.7267L18.3333 11.6667L15 15Z" fill="white"/>
</svg>
