<svg width="25" height="25" viewBox="0 0 25 25" fill="none" xmlns="http://www.w3.org/2000/svg">
<rect width="25" height="25" fill="#E5E5E5"/>
<rect x="-226" y="-327" width="1440" height="1024" rx="40" fill="#F9FAFE"/>
<line x1="12.5078" y1="-112" x2="12.5078" y2="651" stroke="black" stroke-opacity="0.2" stroke-width="0.5"/>
<circle cx="12.5" cy="12.5" r="12.5" fill="#DC395F"/>
<path d="M14.5 6.5C14.2348 6.5 13.9804 6.60536 13.7929 6.79289C13.6054 6.98043 13.5 7.23478 13.5 7.5V9.5C13.5 9.76522 13.6054 10.0196 13.7929 10.2071C13.9804 10.3946 14.2348 10.5 14.5 10.5V12L16.3 10.5H18.5C18.7652 10.5 19.0196 10.3946 19.2071 10.2071C19.3946 10.0196 19.5 9.76522 19.5 9.5V7.5C19.5 7.23478 19.3946 6.98043 19.2071 6.79289C19.0196 6.60536 18.7652 6.5 18.5 6.5H14.5ZM10 9C9.46957 9 8.96086 9.21071 8.58579 9.58579C8.21071 9.96086 8 10.4696 8 11C8 11.5304 8.21071 12.0391 8.58579 12.4142C8.96086 12.7893 9.46957 13 10 13C10.5304 13 11.0391 12.7893 11.4142 12.4142C11.7893 12.0391 12 11.5304 12 11C12 10.4696 11.7893 9.96086 11.4142 9.58579C11.0391 9.21071 10.5304 9 10 9V9ZM12.5 14H7.5C7.10218 14 6.72064 14.158 6.43934 14.4393C6.15804 14.7206 6 15.1022 6 15.5C6 16.616 6.459 17.51 7.212 18.115C7.953 18.71 8.947 19 10 19C11.053 19 12.047 18.71 12.788 18.115C13.54 17.51 14 16.616 14 15.5C14 15.1022 13.842 14.7206 13.5607 14.4393C13.2794 14.158 12.8978 14 12.5 14V14Z" fill="white"/>
</svg>
