<svg width="25" height="25" viewBox="0 0 25 25" fill="none" xmlns="http://www.w3.org/2000/svg">
<rect width="25" height="25" fill="#E5E5E5"/>
<rect x="-227" y="-861" width="1440" height="1024" rx="40" fill="#F9FAFE"/>
<line x1="11.5078" y1="-646" x2="11.5078" y2="117" stroke="black" stroke-opacity="0.2" stroke-width="0.5"/>
<circle cx="12.5" cy="12.5" r="12.5" fill="#E94235"/>
<path d="M10.283 9.98C10.2472 9.73367 10.2649 9.48253 10.3348 9.24363C10.4047 9.00473 10.5251 8.78367 10.688 8.59544C10.8509 8.40722 11.0523 8.25624 11.2787 8.15276C11.5051 8.04928 11.7511 7.99573 12 7.99573C12.2489 7.99573 12.4949 8.04928 12.7213 8.15276C12.9477 8.25624 13.1491 8.40722 13.312 8.59544C13.4749 8.78367 13.5953 9.00473 13.6652 9.24363C13.7351 9.48253 13.7528 9.73367 13.717 9.98L13.141 14.01C13.1011 14.2842 12.9639 14.5348 12.7544 14.7161C12.5448 14.8973 12.277 14.9971 12 14.9971C11.723 14.9971 11.4552 14.8973 11.2456 14.7161C11.0361 14.5348 10.8989 14.2842 10.859 14.01L10.283 9.98Z" fill="white"/>
<path d="M13 17C13 17.2652 12.8946 17.5196 12.7071 17.7071C12.5196 17.8946 12.2652 18 12 18C11.7348 18 11.4804 17.8946 11.2929 17.7071C11.1054 17.5196 11 17.2652 11 17C11 16.7348 11.1054 16.4804 11.2929 16.2929C11.4804 16.1054 11.7348 16 12 16C12.2652 16 12.5196 16.1054 12.7071 16.2929C12.8946 16.4804 13 16.7348 13 17Z" fill="white"/>
</svg>
