<svg width="25" height="25" viewBox="0 0 25 25" fill="none" xmlns="http://www.w3.org/2000/svg">
<rect width="25" height="25" fill="#E5E5E5"/>
<rect x="-227" y="-537" width="1440" height="1024" rx="40" fill="#F9FAFE"/>
<line x1="11.5078" y1="-322" x2="11.5078" y2="441" stroke="black" stroke-opacity="0.2" stroke-width="0.5"/>
<circle cx="12.5" cy="12.5" r="12.5" fill="#F2BB27"/>
<path d="M19 7C19.1768 7 19.3464 7.07024 19.4714 7.19526C19.5964 7.32029 19.6667 7.48986 19.6667 7.66667V17C19.6667 17.1768 19.5964 17.3464 19.4714 17.4714C19.3464 17.5964 19.1768 17.6667 19 17.6667H9.30333L6.33333 20V7.66667C6.33333 7.48986 6.40357 7.32029 6.52859 7.19526C6.65361 7.07024 6.82318 7 6.99999 7H19ZM18.3333 8.33333H7.66666V17.2567L8.84199 16.3333H18.3333V8.33333ZM16.3333 9.66667V15H15V9.66667H16.3333ZM12.3333 10.3333V11.666L13.6667 11.6667V13L12.3333 12.9993V14.3333H11V12.9993L9.66666 13V11.6667L11 11.666V10.3333H12.3333Z" fill="white"/>
</svg>
