<svg width="25" height="25" viewBox="0 0 25 25" fill="none" xmlns="http://www.w3.org/2000/svg">
<rect width="25" height="25" fill="#E5E5E5"/>
<rect x="-226" y="-257" width="1440" height="1024" rx="40" fill="#F9FAFE"/>
<line x1="12.5078" y1="-42" x2="12.5078" y2="721" stroke="black" stroke-opacity="0.2" stroke-width="0.5"/>
<circle cx="12.5" cy="12.5" r="12.5" fill="#5390EB"/>
<path d="M17.5 6.25005H10C9.66848 6.25005 9.35054 6.38174 9.11612 6.61616C8.8817 6.85058 8.75 7.16853 8.75 7.50005V15C8.75 15.3316 8.8817 15.6495 9.11612 15.8839C9.35054 16.1183 9.66848 16.25 10 16.25H17.5C17.8315 16.25 18.1495 16.1183 18.3839 15.8839C18.6183 15.6495 18.75 15.3316 18.75 15V7.50005C18.75 7.16853 18.6183 6.85058 18.3839 6.61616C18.1495 6.38174 17.8315 6.25005 17.5 6.25005ZM13.75 7.81255C14.1644 7.81255 14.5618 7.97717 14.8549 8.27019C15.1479 8.56322 15.3125 8.96065 15.3125 9.37505C15.3125 9.78945 15.1479 10.1869 14.8549 10.4799C14.5618 10.7729 14.1644 10.9375 13.75 10.9375C13.3356 10.9375 12.9382 10.7729 12.6451 10.4799C12.3521 10.1869 12.1875 9.78945 12.1875 9.37505C12.1875 8.96065 12.3521 8.56322 12.6451 8.27019C12.9382 7.97717 13.3356 7.81255 13.75 7.81255V7.81255ZM16.875 14.375H10.625V14.2188C10.625 13.0632 12.0337 11.875 13.75 11.875C15.4663 11.875 16.875 13.0632 16.875 14.2188V14.375Z" fill="white"/>
<path d="M7.50017 10H6.25017V17.5C6.25017 18.1894 6.81079 18.75 7.50017 18.75H15.0002V17.5H7.50017V10Z" fill="white"/>
</svg>
