<svg width="25" height="25" viewBox="0 0 25 25" fill="none" xmlns="http://www.w3.org/2000/svg">
<rect width="25" height="25" fill="#E5E5E5"/>
<rect x="-227" y="-789" width="1440" height="1024" rx="40" fill="#F9FAFE"/>
<line x1="11.5078" y1="-574" x2="11.5078" y2="189" stroke="black" stroke-opacity="0.2" stroke-width="0.5"/>
<circle cx="12.5" cy="12.5" r="12.5" fill="#A259FF"/>
<path d="M18.9083 11.2875C18.6594 11.4143 18.3945 11.5068 18.1208 11.5625C18.2591 11.9864 18.3308 12.4291 18.3333 12.875C18.3238 13.5146 18.1815 14.1453 17.9154 14.727C17.6493 15.3087 17.2652 15.8287 16.7875 16.2542C16.7456 16.293 16.7122 16.3401 16.6892 16.3924C16.6663 16.4447 16.6543 16.5012 16.6542 16.5583V18.7833L14.8292 17.6208C14.7783 17.5886 14.721 17.5679 14.6613 17.56C14.6016 17.5521 14.5409 17.5572 14.4833 17.575C13.8411 17.7744 13.1725 17.8756 12.5 17.875C9.28333 17.875 6.66666 15.6333 6.66666 12.875C6.66666 10.1167 9.28333 7.87499 12.5 7.87499C13.1419 7.87491 13.7804 7.96753 14.3958 8.14999C14.4218 7.87336 14.4849 7.60148 14.5833 7.34166C13.9064 7.14422 13.2051 7.04323 12.5 7.04166C8.825 7.04166 5.83333 9.65832 5.83333 12.875C5.83333 16.0917 8.825 18.7083 12.5 18.7083C13.1876 18.7075 13.8717 18.6122 14.5333 18.425L16.8375 19.8917C16.9004 19.932 16.973 19.9547 17.0477 19.9574C17.1224 19.96 17.1964 19.9425 17.262 19.9068C17.3276 19.871 17.3824 19.8182 17.4206 19.754C17.4588 19.6897 17.479 19.6164 17.4792 19.5417V16.7375C18.0005 16.2374 18.4165 15.638 18.7028 14.9746C18.989 14.3113 19.1396 13.5974 19.1458 12.875C19.1504 12.3366 19.0703 11.8009 18.9083 11.2875Z" fill="white"/>
<path d="M9.58334 12.4583C9.47283 12.4583 9.36685 12.5022 9.28871 12.5804C9.21057 12.6585 9.16667 12.7645 9.16667 12.875C9.16667 12.9855 9.21057 13.0915 9.28871 13.1696C9.36685 13.2478 9.47283 13.2917 9.58334 13.2917H15.4167C15.5272 13.2917 15.6332 13.2478 15.7113 13.1696C15.7894 13.0915 15.8333 12.9855 15.8333 12.875C15.8333 12.7645 15.7894 12.6585 15.7113 12.5804C15.6332 12.5022 15.5272 12.4583 15.4167 12.4583H9.58334Z" fill="white"/>
<path d="M10.9375 14.5417C10.827 14.5417 10.721 14.5856 10.6429 14.6637C10.5647 14.7418 10.5208 14.8478 10.5208 14.9583C10.5208 15.0688 10.5647 15.1748 10.6429 15.253C10.721 15.3311 10.827 15.375 10.9375 15.375H14.0625C14.173 15.375 14.279 15.3311 14.3571 15.253C14.4353 15.1748 14.4792 15.0688 14.4792 14.9583C14.4792 14.8478 14.4353 14.7418 14.3571 14.6637C14.279 14.5856 14.173 14.5417 14.0625 14.5417H10.9375Z" fill="white"/>
<path d="M9.28374 10.7917C9.28374 10.9022 9.32764 11.0082 9.40578 11.0863C9.48392 11.1644 9.5899 11.2083 9.7004 11.2083H15.3004C15.3698 11.2071 15.4378 11.1885 15.4982 11.1543C15.5586 11.1201 15.6095 11.0714 15.6462 11.0125C15.4012 10.8324 15.1837 10.6177 15.0004 10.375H9.7004C9.5899 10.375 9.48392 10.4189 9.40578 10.497C9.32764 10.5752 9.28374 10.6812 9.28374 10.7917Z" fill="white"/>
<path d="M17.5 10.5833C18.6506 10.5833 19.5833 9.65058 19.5833 8.49999C19.5833 7.3494 18.6506 6.41666 17.5 6.41666C16.3494 6.41666 15.4167 7.3494 15.4167 8.49999C15.4167 9.65058 16.3494 10.5833 17.5 10.5833Z" fill="white"/>
</svg>
